<svg id="drone-logo-design-fly-technology-vector" xmlns="http://www.w3.org/2000/svg" width="85.272" height="85.172" viewBox="0 0 85.272 85.172">
  <path id="Path_20" data-name="Path 20" d="M335.537-697.419a6.763,6.763,0,0,0-1.965,1.577,5.6,5.6,0,0,0,.491,7.809c.388.362,3,2.2,5.766,4.06,6.827,4.6,9.542,7.059,12.205,11.042a30.947,30.947,0,0,1,5.3,16.394,30.481,30.481,0,0,1-5.3,18.773c-2.715,4.112-4.215,5.482-11.688,10.576-7.758,5.3-8.068,5.611-8.223,8.4a4.44,4.44,0,0,0,.44,2.767,5.726,5.726,0,0,0,6.232,3.155c1.991-.44,2.948-1.293,5.2-4.706,5.663-8.456,8.016-11.352,11.326-13.834a32.983,32.983,0,0,1,11.895-5.689c2.25-.595,2.922-.646,7.4-.646s5.146.052,7.4.646a31.113,31.113,0,0,1,14.843,8.326c1.629,1.6,3.077,3.517,6.284,8.352,4.991,7.473,5.249,7.706,8.326,7.706,1.733,0,2.12-.1,3.051-.724a7.682,7.682,0,0,0,1.784-1.758,6.022,6.022,0,0,0-.776-7.137c-.31-.284-3.336-2.431-6.723-4.732-6.8-4.655-8.818-6.516-11.378-10.421a30.183,30.183,0,0,1-5.353-17.765,28.274,28.274,0,0,1,5.379-17.2c3.258-4.6,9.464-10.085,15.386-13.627,2.638-1.551,3.646-2.534,4.215-3.982a6.085,6.085,0,0,0-1.629-6.361,6.371,6.371,0,0,0-6.18-.75c-1.293.595-2.017,1.474-6.025,7.447-3.491,5.172-5.094,7.163-7.577,9.309a31.558,31.558,0,0,1-15.748,7.473,36.094,36.094,0,0,1-12.722-.491,32.593,32.593,0,0,1-14.377-8.068c-2.431-2.353-3.181-3.362-7.5-9.981a53.541,53.541,0,0,0-3.413-4.861A6.039,6.039,0,0,0,335.537-697.419Z" transform="translate(-332.098 697.879)" fill="#fff"/>
</svg>
