<svg width="192" height="126" viewBox="0 0 192 126" fill="none" xmlns="http://www.w3.org/2000/svg">
<path d="M148.965 0.00146484H43.0352V125.795H148.965V0.00146484Z" fill="white"/>
<path d="M14.3793 0C6.43761 0 0 6.43761 0 14.3793V111.414C0 119.355 6.43761 125.793 14.3793 125.793H43.0345V0H14.3793Z" fill="#FF4B55"/>
<path d="M177.62 0H148.965V125.793H177.62C185.561 125.793 191.999 119.355 191.999 111.413V14.3793C191.999 6.43761 185.562 0 177.62 0Z" fill="#FF4B55"/>
<path d="M116.089 77.4312L135.732 66.2068L131.225 63.953C129.961 63.3208 129.237 61.9558 129.424 60.5544L130.891 49.5587L122.574 51.9782C120.737 52.5129 118.831 51.3827 118.417 49.5148L117.621 45.9148L109.812 55.0535C108.73 56.3203 106.667 55.3528 106.95 53.7107L110.285 34.3202L105.179 35.7163C103.688 36.1243 102.113 35.4456 101.386 34.0813L96.0092 24.0047V23.9897L96.0055 23.9972L96.0014 23.9897V24.0047L90.625 34.0813C89.8971 35.4452 88.3221 36.124 86.8308 35.7163L81.7252 34.3202L85.06 53.7107C85.3424 55.3524 83.2799 56.3203 82.1973 55.0539L74.3887 45.9152L73.5922 49.5152C73.1789 51.3834 71.2724 52.5129 69.4353 51.9786L61.119 49.5591L62.5856 60.5548C62.7727 61.9558 62.049 63.3212 60.7848 63.9534L56.2773 66.2068L75.9209 77.4316C77.9557 78.5945 78.8474 81.0605 78.0265 83.2554L76.3473 87.7467L93.1791 86.3097C94.1106 86.2302 94.9034 86.9802 94.876 87.9144L94.3458 105.931H97.6562L97.1252 87.9136C97.0979 86.9791 97.8906 86.2295 98.8221 86.309L115.662 87.7467L113.983 83.2554C113.162 81.0601 114.054 78.5937 116.089 77.4312Z" fill="#FF4B55"/>
</svg>
