<svg width="49" height="49" viewBox="0 0 49 49" fill="none" xmlns="http://www.w3.org/2000/svg">
<rect x="1.5" y="1.5" width="46" height="46" rx="11.5" stroke="white" stroke-width="3"/>
<path d="M39.4469 24.0375V24.1875V28.5312V28.5816L39.4165 28.6217C39.2429 28.8513 38.9777 29.0955 38.6285 29.3548L38.6282 29.355C38.2725 29.6177 37.8059 29.8401 37.2337 30.0255C36.6515 30.2142 35.9342 30.3062 35.0859 30.3062C34.3554 30.3062 33.6824 30.1835 33.0689 29.936L33.0678 29.9356C32.454 29.6825 31.9229 29.3132 31.4757 28.8283L31.4751 28.8276C31.0328 28.3422 30.6923 27.7537 30.4521 27.065L30.452 27.0647C30.2112 26.3689 30.0922 25.5811 30.0922 24.7031V23.9141C30.0922 23.0425 30.2004 22.2611 30.4195 21.5718L30.4198 21.5711C30.6438 20.8776 30.9654 20.2863 31.3866 19.8002C31.808 19.314 32.3165 18.9462 32.9106 18.6977C33.5099 18.444 34.1838 18.3187 34.9297 18.3187C35.8773 18.3187 36.6733 18.4774 37.31 18.8037M39.4469 24.0375L37.2422 18.9375M39.4469 24.0375H39.2969H34.9766H34.8266V24.1875V25.6484V25.7984H34.9766H37.1938V27.8442C37.1139 27.92 37.0054 28.0027 36.8654 28.0918C36.716 28.1851 36.5053 28.2713 36.2274 28.3471C35.9577 28.4156 35.6046 28.4516 35.1641 28.4516C34.7245 28.4516 34.3351 28.3718 33.9929 28.2155C33.6514 28.0544 33.3606 27.8178 33.1196 27.5032C32.8831 27.1878 32.6979 26.797 32.5665 26.3275C32.4406 25.8587 32.3766 25.3177 32.3766 24.7031V23.8984C32.3766 23.2928 32.433 22.758 32.5443 22.2927C32.6556 21.8274 32.8185 21.4388 33.0304 21.1233M39.4469 24.0375L32.9062 21.0391M37.31 18.8037C37.3102 18.8038 37.3104 18.8039 37.3106 18.804L37.2422 18.9375M37.31 18.8037C37.3097 18.8036 37.3095 18.8035 37.3093 18.8033L37.2422 18.9375M37.31 18.8037C37.9475 19.1226 38.4432 19.5682 38.7921 20.1407C39.1376 20.7075 39.3548 21.3531 39.4457 22.075L39.4669 22.2438H39.2969H37.375H37.2468L37.2268 22.1171C37.1669 21.7377 37.0502 21.4016 36.8782 21.1068L36.8773 21.1052C36.715 20.8188 36.4813 20.5938 36.1718 20.4293L36.1693 20.428L36.1693 20.428C35.8707 20.2621 35.4712 20.1734 34.9609 20.1734C34.527 20.1734 34.1522 20.2557 33.8327 20.4154C33.5131 20.5752 33.2458 20.8101 33.0304 21.1233M37.2422 18.9375C37.8568 19.2448 38.3307 19.6719 38.6641 20.2188C38.9735 20.7264 39.1775 21.3014 39.2759 21.9437H39.2969V22.0938L39.1481 22.1125C39.1473 22.1062 39.1465 22.1 39.1457 22.0938H37.375C37.3125 21.6979 37.1901 21.3438 37.0078 21.0312C36.8307 20.7188 36.5755 20.474 36.2422 20.2969C35.9141 20.1146 35.487 20.0234 34.9609 20.0234C34.5078 20.0234 34.1094 20.1094 33.7656 20.2812C33.4219 20.4531 33.1354 20.7057 32.9062 21.0391M33.0304 21.1233C33.0305 21.1231 33.0306 21.1229 33.0308 21.1227L32.9062 21.0391M33.0304 21.1233C33.0302 21.1236 33.03 21.1238 33.0299 21.124L32.9062 21.0391M17.7516 28.4453V28.2953H17.6016H12.2672V25.0563H16.8125H16.9625V24.9062V23.375V23.225H16.8125H12.2672V20.3375H17.5625H17.7125V20.1875V18.625V18.475H17.5625H12.2672H12.1172H11.5625H11.4125H10.1562H10.0062V18.625V30V30.15H10.1562H11.4125H11.5625H12.1172H12.2672H17.6016H17.7516V30V28.4453ZM28.3766 18.625V18.475H28.2266H26.2812H26.1313V18.625V26.2673L21.2912 18.5453L21.2471 18.475H21.1641H19.2031H19.0531V18.625V30V30.15H19.2031H21.1641H21.3141V30V22.3738L26.1385 30.0796L26.1826 30.15H26.2656H28.2266H28.3766V30V18.625Z" fill="white" stroke="white" stroke-width="0.3"/>
</svg>
