<svg width="192" height="126" viewBox="0 0 192 126" fill="none" xmlns="http://www.w3.org/2000/svg">
<g clip-path="url(#clip0_737_22)">
<path d="M0 0H192V126H0V0Z" fill="white"/>
<path d="M80 0V47.25H0V0H80ZM46.18 31.9331V29.3934H43.88C43.88 28.0941 44.52 26.8341 45.2 26.4403C45.6 26.1056 46.5 25.9481 47.28 26.3419C48.3 26.9128 48.36 28.5666 47.84 29.3147C52.7 28.4287 52.22 23.8022 50.56 22.1287C49.22 20.7703 47.76 20.5734 46.64 20.9869C44.08 21.8925 42.36 24.9047 42.28 29.3934H40.94C40.94 25.3181 41.66 24.0187 43.54 18.8803C44.5 16.4587 43.92 13.4662 42.24 10.71C41.62 9.72562 40.86 8.83969 40 7.875C39.14 8.83969 38.38 9.72562 37.76 10.71C36.08 13.4662 35.5 16.4587 36.46 18.8803C38.34 24.0187 39.06 25.3181 39.06 29.3934H37.72C37.64 24.9047 35.92 21.8925 33.36 20.9869C32.24 20.5734 30.78 20.7703 29.44 22.1287C27.78 23.8022 27.3 28.4287 32.16 29.3147C31.64 28.5666 31.7 26.9128 32.72 26.3419C33.5 25.9481 34.4 26.1056 34.8 26.4403C35.48 26.8341 36.12 28.0941 36.12 29.3934H33.82V31.9331H38.6C38.54 33.2522 37.82 34.2759 36.48 34.8469C36.64 35.3981 37.46 36.5203 38.58 36.4416C38.8 37.6228 39 38.2922 40 39.375C41 38.2922 41.2 37.6228 41.42 36.4416C42.54 36.5203 43.36 35.3981 43.52 34.8469C42.18 34.2759 41.46 33.2522 41.4 31.9331H46.18Z" fill="#003DA5"/>
<path d="M192 0V47.25H112V0H192ZM158.18 31.9331V29.3934H155.88C155.88 28.0941 156.52 26.8341 157.2 26.4403C157.6 26.1056 158.5 25.9481 159.28 26.3419C160.3 26.9128 160.36 28.5666 159.84 29.3147C164.7 28.4287 164.22 23.8022 162.56 22.1287C161.22 20.7703 159.76 20.5734 158.64 20.9869C156.08 21.8925 154.36 24.9047 154.28 29.3934H152.94C152.94 25.3181 153.66 24.0187 155.54 18.8803C156.5 16.4587 155.92 13.4662 154.24 10.71C153.62 9.72562 152.86 8.83969 152 7.875C151.14 8.83969 150.38 9.72562 149.76 10.71C148.08 13.4662 147.5 16.4587 148.46 18.8803C150.34 24.0187 151.06 25.3181 151.06 29.3934H149.72C149.64 24.9047 147.92 21.8925 145.36 20.9869C144.24 20.5734 142.78 20.7703 141.44 22.1287C139.78 23.8022 139.3 28.4287 144.16 29.3147C143.64 28.5666 143.7 26.9128 144.72 26.3419C145.5 25.9481 146.4 26.1056 146.8 26.4403C147.48 26.8341 148.12 28.0941 148.12 29.3934H145.82V31.9331H150.6C150.54 33.2522 149.82 34.2759 148.48 34.8469C148.64 35.3981 149.46 36.5203 150.58 36.4416C150.8 37.6228 151 38.2922 152 39.375C153 38.2922 153.2 37.6228 153.42 36.4416C154.54 36.5203 155.36 35.3981 155.52 34.8469C154.18 34.2759 153.46 33.2522 153.4 31.9331H158.18Z" fill="#003DA5"/>
<path d="M80 78.75V126H0V78.75H80ZM46.18 110.683V108.143H43.88C43.88 106.844 44.52 105.584 45.2 105.19C45.6 104.856 46.5 104.698 47.28 105.092C48.3 105.663 48.36 107.317 47.84 108.065C52.7 107.179 52.22 102.552 50.56 100.879C49.22 99.5203 47.76 99.3234 46.64 99.7369C44.08 100.642 42.36 103.655 42.28 108.143H40.94C40.94 104.068 41.66 102.769 43.54 97.6303C44.5 95.2087 43.92 92.2162 42.24 89.46C41.62 88.4756 40.86 87.5897 40 86.625C39.14 87.5897 38.38 88.4756 37.76 89.46C36.08 92.2162 35.5 95.2087 36.46 97.6303C38.34 102.769 39.06 104.068 39.06 108.143H37.72C37.64 103.655 35.92 100.642 33.36 99.7369C32.24 99.3234 30.78 99.5203 29.44 100.879C27.78 102.552 27.3 107.179 32.16 108.065C31.64 107.317 31.7 105.663 32.72 105.092C33.5 104.698 34.4 104.856 34.8 105.19C35.48 105.584 36.12 106.844 36.12 108.143H33.82V110.683H38.6C38.54 112.002 37.82 113.026 36.48 113.597C36.64 114.148 37.46 115.27 38.58 115.192C38.8 116.373 39 117.042 40 118.125C41 117.042 41.2 116.373 41.42 115.192C42.54 115.27 43.36 114.148 43.52 113.597C42.18 113.026 41.46 112.002 41.4 110.683H46.18Z" fill="#003DA5"/>
<path d="M192 78.75V126H112V78.75H192ZM158.18 110.683V108.143H155.88C155.88 106.844 156.52 105.584 157.2 105.19C157.6 104.856 158.5 104.698 159.28 105.092C160.3 105.663 160.36 107.317 159.84 108.065C164.7 107.179 164.22 102.552 162.56 100.879C161.22 99.5203 159.76 99.3234 158.64 99.7369C156.08 100.642 154.36 103.655 154.28 108.143H152.94C152.94 104.068 153.66 102.769 155.54 97.6303C156.5 95.2088 155.92 92.2163 154.24 89.46C153.62 88.4756 152.86 87.5897 152 86.625C151.14 87.5897 150.38 88.4756 149.76 89.46C148.08 92.2163 147.5 95.2088 148.46 97.6303C150.34 102.769 151.06 104.068 151.06 108.143H149.72C149.64 103.655 147.92 100.642 145.36 99.7369C144.24 99.3234 142.78 99.5203 141.44 100.879C139.78 102.552 139.3 107.179 144.16 108.065C143.64 107.317 143.7 105.663 144.72 105.092C145.5 104.698 146.4 104.856 146.8 105.19C147.48 105.584 148.12 106.844 148.12 108.143H145.82V110.683H150.6C150.54 112.002 149.82 113.026 148.48 113.597C148.64 114.148 149.46 115.27 150.58 115.192C150.8 116.373 151 117.042 152 118.125C153 117.042 153.2 116.373 153.42 115.192C154.54 115.27 155.36 114.148 155.52 113.597C154.18 113.026 153.46 112.002 153.4 110.683H158.18Z" fill="#003DA5"/>
</g>
<defs>
<clipPath id="clip0_737_22">
<rect width="192" height="126" rx="20" fill="white"/>
</clipPath>
</defs>
</svg>
