<svg width="180" height="176" viewBox="0 0 180 176" fill="none" xmlns="http://www.w3.org/2000/svg">
<path d="M164.096 84.6356C169.203 85.4527 174.106 86.2017 179.144 87.0188C176.421 92.8064 173.765 98.4579 171.042 104.109C162.871 121.404 154.677 138.699 146.461 155.994C143.806 161.645 140.946 167.297 138.222 172.948C137.814 173.901 137.269 174.242 136.248 174.31C131.822 174.446 127.464 174.718 123.106 174.923C122.153 174.923 121.268 174.787 120.519 174.65C120.451 174.378 120.315 174.242 120.315 174.106C119.974 170.293 118.817 169.135 115.072 168.795C113.029 168.59 110.918 168.931 109.012 167.773L107.99 168.046C105.131 170.769 101.454 170.905 97.9132 171.722C95.1896 172.335 92.6022 173.289 90.0148 174.106C89.0615 174.378 88.1082 174.855 87.0869 174.923C86.0882 175.014 85.0896 175.059 84.0909 175.059C75.9201 175.059 68.7026 171.927 62.3702 166.752C60.8042 165.458 60.1233 162.667 59.7148 160.42C59.2382 157.968 59.6467 155.381 59.4424 152.862C59.3062 150.615 60.2595 148.912 61.6213 147.21C62.7788 147.687 64.0725 148.095 65.3662 148.572C65.9109 148.776 66.4557 149.117 66.9323 149.117C67.4089 149.117 67.8856 148.844 68.226 148.027C68.2941 147.823 69.043 147.891 69.5197 147.823C71.0857 147.755 72.788 147.891 73.7413 146.189C75.5116 147.142 77.282 148.027 79.1885 148.027C79.8694 148.027 80.6183 147.959 81.3673 147.619C82.3206 147.278 83.0696 146.529 83.9548 145.985C84.6357 145.576 85.5889 144.827 86.0655 144.827C87.3592 145.508 88.6529 146.461 88.9253 147.551C89.4019 149.049 89.3338 150.887 88.8572 152.317C88.5848 153.134 87.0869 153.747 85.9975 154.019C85.6797 154.065 85.3846 154.087 85.1123 154.087C84.2271 154.087 83.2738 153.883 82.3887 153.815C82.1163 153.815 81.844 153.815 81.5716 153.815C81.0723 153.815 80.5729 153.815 80.0736 153.815L79.9374 154.496C80.8907 154.768 81.844 155.177 82.8653 155.313C85.7251 155.517 85.7931 155.653 86.2017 158.649C86.2698 159.33 86.8145 160.215 87.4273 160.624C87.972 160.692 88.721 160.215 89.1976 159.875C90.3552 158.99 91.5808 158.581 92.8064 158.581C93.4419 158.581 94.0547 158.672 94.6448 158.853C96.5513 159.33 98.3898 159.807 100.228 160.556C100.637 160.692 101.023 160.76 101.386 160.76C102.135 160.76 102.748 160.42 103.088 159.807C103.701 158.717 104.45 156.947 103.973 156.13C101.113 151.364 98.2536 146.529 93.7597 142.989C91.3766 141.15 88.7892 140.129 85.9294 140.129C85.4301 140.129 84.9307 140.152 84.4314 140.197C82.4567 140.401 80.4822 140.742 78.4395 140.81C76.8053 140.855 75.1258 140.855 73.4008 140.81C71.1539 140.81 68.8388 140.81 66.4556 140.81C69.3154 137.541 69.5878 133.796 69.0431 129.915C68.5664 126.783 67.5451 123.719 66.728 120.655C66.5918 120.042 66.1833 119.361 66.1833 118.749C66.1833 116.434 64.4811 115.344 63.1193 113.914C62.5065 113.233 61.9618 112.552 61.4171 111.872L60.668 111.327C58.6253 110.578 56.5826 109.829 54.5399 109.216C53.11 108.739 51.6802 108.399 50.2503 107.99C49.7737 107.854 49.229 107.718 48.8885 107.446C46.6642 105.312 44.4626 103.156 42.2837 100.977C39.2197 98.0493 37.9261 94.1682 36.9728 90.219C36.8366 89.6743 37.3813 88.8572 37.8579 88.3806C41.2624 84.3633 45.8245 82.661 50.9312 82.5929C52.9739 82.5929 55.0166 83.8867 57.1274 84.3633C58.6253 84.7037 60.2595 84.4314 61.6893 84.908C63.1873 85.3846 64.481 86.2698 65.7747 87.0869C66.6599 87.6316 67.2727 88.5168 68.0898 89.1296C68.7707 89.6062 69.2473 89.8105 69.724 89.8105C70.5411 89.8105 71.222 89.1976 71.971 88.2444C73.2647 86.6102 75.035 85.2484 76.8053 84.0909C76.9415 84.0001 77.123 83.9547 77.35 83.9547C77.9628 83.9547 78.7799 84.2952 79.4608 84.3633L79.9374 83.9547C79.4608 83.0695 78.9842 82.1163 78.4395 81.2992C77.6905 80.0736 77.6224 79.2565 78.9842 78.3033C80.2779 77.35 81.2312 75.852 82.2525 74.4221C83.3419 72.8561 84.6357 71.4943 86.6103 71.4943C86.8826 71.4943 87.1776 71.5397 87.4954 71.6305C88.3806 71.7667 89.3338 72.3114 90.1509 72.8561C90.6275 73.1965 91.1042 73.537 91.5808 73.537C92.0574 73.537 92.5341 73.1965 93.0788 72.3795C92.0575 71.6305 91.0361 70.8134 90.0148 70.0644C88.9934 69.3154 87.2912 69.0431 87.6316 67.3408C87.904 66.2514 88.5849 66.0471 89.4019 66.0471C89.6289 66.0471 89.8559 66.0471 90.0828 66.0471C90.2644 66.0925 90.4687 66.1152 90.6957 66.1152H91.717C91.4447 66.5237 91.2404 66.7961 90.7637 67.4089C93.215 67.4089 93.7597 65.5024 95.2576 64.8215C95.3257 65.8428 95.1215 67.2046 96.5514 67.2046C96.7329 67.2046 96.9599 67.1819 97.2323 67.1365C96.8237 68.9069 96.5514 70.4729 96.2109 72.039L96.6875 72.3114C97.2322 71.9028 97.7089 71.6305 98.3217 71.2219C99.0707 71.8347 99.8197 72.5156 100.705 73.0603C101.068 73.2873 101.363 73.4008 101.59 73.4008C102.135 73.4008 102.407 72.9242 102.407 72.039V69.724H108.263C108.535 70.6772 108.808 71.6305 108.944 72.5156C108.944 72.9923 108.739 73.6051 108.467 74.0136C107.99 74.0817 107.378 73.8774 107.173 73.6732C106.765 73.3327 106.492 73.1965 106.22 73.1965C105.471 73.1965 105.131 74.1498 104.382 74.4903C104.926 75.035 105.335 75.3754 105.812 75.8521C104.109 76.3968 102.611 76.9415 101.045 77.4181C101.999 78.3033 103.02 78.7118 103.973 79.0522C103.02 79.7331 102.135 79.8693 101.113 80.0055C101.658 82.7291 105.063 81.7759 105.607 84.4314C105.063 84.159 104.518 83.8866 103.701 83.41C103.565 83.41 103.02 83.6824 102.475 83.8866L102.339 84.4314C103.224 84.908 104.109 85.3846 104.995 85.7931C105.471 86.0655 105.948 86.4059 106.492 86.6783C108.195 87.3592 108.195 88.5848 107.786 90.1509C107.65 90.7637 108.195 91.6489 108.399 92.3298C109.352 91.9893 111.054 91.7851 111.191 91.1723C112.008 88.1082 113.982 87.5635 116.229 87.5635C116.91 87.5635 117.591 87.6316 118.272 87.6316C119.089 87.6997 119.838 87.8358 120.587 88.0401C122.63 88.3806 124.604 88.7891 126.511 89.1296C128.758 87.4954 128.349 85.4527 127.805 83.3419C127.396 81.6397 126.715 79.9374 127.873 78.1671C129.711 78.5756 131.481 78.9842 133.252 79.3246C134.137 79.3927 134.682 79.2565 134.818 78.9842C135.158 78.1671 135.363 77.1457 135.294 76.1244C135.294 75.9882 134.341 75.6478 133.728 75.6478C133.32 75.6478 133.184 75.6478 133.047 75.6478C131.89 75.6478 131.549 75.0349 131.822 72.9242C127.668 74.1498 125.013 77.2139 122.153 79.597C121.949 78.7799 121.949 77.7585 121.472 77.35C120.996 76.8734 119.974 77.0096 119.021 76.8734C119.77 76.1244 120.383 75.035 121.336 74.3541C124.332 72.2433 126.034 68.7026 129.779 67.4089C130.664 67.0685 131.141 65.4343 131.413 64.2087C133.184 63.0511 134.954 61.9617 136.792 60.7361C136.316 59.9871 135.907 59.3062 135.226 58.421C136.248 57.7401 137.269 57.1273 138.29 56.4464C139.244 59.8509 142.784 59.17 144.623 60.9404C148.436 58.2168 148.3 43.9179 146.665 36.9047C146.257 37.8579 145.78 38.3346 145.848 38.8112C145.916 40.0368 146.257 41.2624 146.325 42.5561C146.393 43.3051 146.529 44.3946 146.121 44.735C144.555 46.1649 144.691 47.8671 144.759 49.6375C144.759 49.9779 144.691 50.3865 144.282 50.795C144.078 49.9098 143.806 49.0927 143.738 48.2076C143.533 46.3011 143.533 44.3265 143.329 42.3519C143.329 41.8752 143.329 41.1262 142.648 41.1262C142.512 41.1262 142.308 41.1716 142.035 41.2624L141.423 40.8539C140.81 40.3773 140.537 40.1049 140.197 40.1049C139.856 40.1049 139.38 40.3773 138.563 40.8539C138.971 38.3346 139.312 36.0195 139.788 33.7045C140.197 31.3894 140.81 29.0062 141.354 26.4188C141.967 26.6912 142.58 26.6912 143.057 27.0317C143.601 27.5083 144.146 27.7126 144.691 27.7126C145.372 27.7126 145.985 27.4402 146.461 26.8274C147.142 25.9422 147.414 24.7166 147.551 23.5591C147.619 23.2867 146.461 22.8782 145.644 22.4015C145.508 23.4229 145.372 23.9676 145.236 25.057C144.623 25.057 143.942 24.989 143.261 24.989C142.762 24.989 142.262 25.0343 141.763 25.1251C141.218 25.1932 140.401 25.806 140.265 26.3508C139.38 29.2786 138.358 32.2065 137.814 35.2024C136.52 41.3305 136.043 47.5948 133.456 53.4505C131.277 58.421 127.328 60.9404 122.221 61.8936C120.315 62.2341 118.408 62.2341 116.434 62.2341C122.834 61.6213 127.873 58.5572 131.55 53.4505C132.775 51.6802 133.048 49.2289 133.66 47.0501C134.886 42.42 135.703 37.7898 136.929 33.1597C138.427 27.4402 140.265 21.8568 143.057 16.5458C146.461 10.0773 151.091 4.56202 157.151 0.408543C157.628 0.136184 158.241 0 158.854 0C159.398 0 159.943 0.136175 160.283 0.272355C160.964 0.544714 161.373 1.83842 161.441 2.6555C161.509 3.26831 160.964 4.15348 160.42 4.49393C154.564 8.98786 151.296 14.9117 150.138 22.1292C148.98 30.0276 149.525 37.926 149.729 45.7564C149.798 50.3865 149.117 54.9485 148.504 59.5105C148.3 60.8042 147.074 61.8936 146.325 63.0512C145.78 63.9363 145.304 64.8215 144.759 65.7747C147.619 67.9536 150.819 68.975 154.087 69.3154C157.628 69.6559 161.169 69.5878 164.709 69.792C165.254 69.792 165.935 70.0644 166.207 70.4729C167.433 72.3114 168.59 74.2179 169.884 76.1925C168.454 77.4181 167.365 78.3714 166.207 79.3246C162.598 82.1844 162.326 83.1376 163.96 87.3592C164.096 87.6997 164.165 88.1082 164.233 88.3806C161.713 89.1295 161.577 89.5381 161.986 94.4406C163.96 94.3044 164.233 93.6235 163.279 90.8999C164.369 90.0147 166.071 89.2657 166.207 88.3125C166.343 87.2911 164.982 86.0655 164.096 84.6356ZM4.42584 22.742C13.3456 27.2359 18.5886 35.4067 24.6486 42.6242C29.8234 48.8204 34.7258 55.4251 41.8072 59.5786C44.9393 61.417 48.548 62.6426 52.0206 63.8682C57.1274 65.6386 62.3703 67.0684 68.0898 68.8388C64.9577 68.6345 62.2341 68.7026 59.5786 68.226C50.8631 66.7961 43.3732 62.7107 36.6323 56.9912C29.7553 51.2035 23.9677 44.3946 18.18 37.5856C15.1841 34.0449 12.1881 30.5042 8.91975 27.2359C7.83031 26.1465 6.05998 25.7379 4.15346 24.8528C4.28964 25.6699 4.22158 25.8741 4.35776 26.0784C7.55798 31.5937 10.8263 37.109 13.8903 42.6923C17.1586 48.8885 20.1546 55.357 24.7847 60.7361C28.6658 65.23 32.8193 69.2473 38.8793 70.9496C45.5521 72.8561 52.0887 75.3754 58.7615 77.4181C60.1914 77.8947 61.8255 77.7585 63.3235 77.8266C63.5959 77.8266 63.8683 77.8266 64.1406 77.8266C64.6854 77.8266 65.2755 77.8266 65.911 77.8266C65.0258 79.9374 64.6853 80.6183 63.732 80.6183C63.3235 80.6183 62.7107 80.414 61.8256 80.2098C53.8591 77.8266 45.8925 75.7159 38.0622 73.0603C31.1851 70.8134 25.3295 66.7961 21.2441 60.5999C19.8823 58.4891 19.0652 55.9698 17.8396 53.7228C13.4137 45.5521 8.91976 37.3813 4.42584 29.2786C3.88112 28.3934 2.65555 27.8487 1.83847 27.1678C1.15758 26.6231 0 25.9422 0 25.4656C0.13618 24.5804 0.953307 23.7633 1.49803 22.8101L4.42584 22.742Z" fill="#E72A15"/>
</svg>
